<svg width="1500" height="1048" viewBox="0 0 1500 1048" fill="none" xmlns="http://www.w3.org/2000/svg">
<rect width="1500" height="665" rx="10" fill="url(#paint0_linear_105_34)"/>
<path fill-rule="evenodd" clip-rule="evenodd" d="M0 488.691L27.5 476.671C55 464.65 111.25 440.609 166.25 434.599C222.5 428.588 277.5 440.609 333.75 452.63C388.75 464.65 445 476.671 500 488.691C555 500.712 611.25 512.732 666.25 500.712C722.5 488.691 777.5 452.63 833.75 440.609C888.75 428.588 945 440.609 1000 464.65C1055 488.691 1111.25 524.753 1166.25 536.774C1222.5 548.794 1277.5 536.774 1333.75 524.753C1388.75 512.732 1445 500.712 1472.5 494.702L1500 488.691V669H1472.5C1445 669 1388.75 669 1333.75 669C1277.5 669 1222.5 669 1166.25 669C1111.25 669 1055 669 1000 669C945 669 888.75 669 833.75 669C777.5 669 722.5 669 666.25 669C611.25 669 555 669 500 669C445 669 388.75 669 333.75 669C277.5 669 222.5 669 166.25 669C111.25 669 55 669 27.5 669H0V488.691Z" fill="#0099FF"/>
<path fill-rule="evenodd" clip-rule="evenodd" d="M0 464.691L27.5 452.671C55 440.65 111.25 416.609 166.25 410.599C222.5 404.588 277.5 416.609 333.75 428.63C388.75 440.65 445 452.671 500 464.691C555 476.712 611.25 488.732 666.25 476.712C722.5 464.691 777.5 428.63 833.75 416.609C888.75 404.588 945 416.609 1000 440.65C1055 464.691 1111.25 500.753 1166.25 512.774C1222.5 524.794 1277.5 512.774 1333.75 500.753C1388.75 488.732 1445 476.712 1472.5 470.702L1500 464.691V645H1472.5C1445 645 1388.75 645 1333.75 645C1277.5 645 1222.5 645 1166.25 645C1111.25 645 1055 645 1000 645C945 645 888.75 645 833.75 645C777.5 645 722.5 645 666.25 645C611.25 645 555 645 500 645C445 645 388.75 645 333.75 645C277.5 645 222.5 645 166.25 645C111.25 645 55 645 27.5 645H0V464.691Z" fill="#0099FF" fill-opacity="0.09"/>
<path fill-rule="evenodd" clip-rule="evenodd" d="M0 557.691L27.5 545.671C55 533.65 111.25 509.609 166.25 503.599C222.5 497.588 277.5 509.609 333.75 521.63C388.75 533.65 445 545.671 500 557.691C555 569.712 611.25 581.732 666.25 569.712C722.5 557.691 777.5 521.63 833.75 509.609C888.75 497.588 945 509.609 1000 533.65C1055 557.691 1111.25 593.753 1166.25 605.774C1222.5 617.794 1277.5 605.774 1333.75 593.753C1388.75 581.732 1445 569.712 1472.5 563.702L1500 557.691V738H1472.5C1445 738 1388.75 738 1333.75 738C1277.5 738 1222.5 738 1166.25 738C1111.25 738 1055 738 1000 738C945 738 888.75 738 833.75 738C777.5 738 722.5 738 666.25 738C611.25 738 555 738 500 738C445 738 388.75 738 333.75 738C277.5 738 222.5 738 166.25 738C111.25 738 55 738 27.5 738H0V557.691Z" fill="#008EED"/>
<path fill-rule="evenodd" clip-rule="evenodd" d="M0 622.691L27.5 610.671C55 598.65 111.25 574.609 166.25 568.599C222.5 562.588 277.5 574.609 333.75 586.63C388.75 598.65 445 610.671 500 622.691C555 634.712 611.25 646.732 666.25 634.712C722.5 622.691 777.5 586.63 833.75 574.609C888.75 562.588 945 574.609 1000 598.65C1055 622.691 1111.25 658.753 1166.25 670.774C1222.5 682.794 1277.5 670.774 1333.75 658.753C1388.75 646.732 1445 634.712 1472.5 628.702L1500 622.691V803H1472.5C1445 803 1388.75 803 1333.75 803C1277.5 803 1222.5 803 1166.25 803C1111.25 803 1055 803 1000 803C945 803 888.75 803 833.75 803C777.5 803 722.5 803 666.25 803C611.25 803 555 803 500 803C445 803 388.75 803 333.75 803C277.5 803 222.5 803 166.25 803C111.25 803 55 803 27.5 803H0V622.691Z" fill="#0083DB"/>
<path fill-rule="evenodd" clip-rule="evenodd" d="M0 682.234C0 678.26 2.35332 674.663 5.9948 673.071L27.5 663.671C55 651.65 111.25 627.609 166.25 621.599C222.5 615.588 277.5 627.609 333.75 639.63C388.75 651.65 445 663.671 500 675.691C555 687.712 611.25 699.732 666.25 687.712C722.5 675.691 777.5 639.63 833.75 627.609C888.75 615.588 945 627.609 1000 651.65C1055 675.691 1111.25 711.753 1166.25 723.774C1222.5 735.794 1277.5 723.774 1333.75 711.753C1388.75 699.732 1445 687.712 1472.5 681.702L1487.86 678.343C1494.1 676.981 1500 681.73 1500 688.113V846C1500 851.523 1495.52 856 1490 856H1472.5C1445 856 1388.75 856 1333.75 856C1277.5 856 1222.5 856 1166.25 856C1111.25 856 1055 856 1000 856C945 856 888.75 856 833.75 856C777.5 856 722.5 856 666.25 856C611.25 856 555 856 500 856C445 856 388.75 856 333.75 856C277.5 856 222.5 856 166.25 856C111.25 856 55 856 27.5 856H10C4.47715 856 0 851.523 0 846V682.234Z" fill="#007ACB"/>
<rect y="794" width="1500" height="254" rx="10" fill="#007ACB"/>
<path d="M196.528 67.688V83.176H232.24V67.688H196.528ZM246.32 36.456V136.552C246.32 138.984 245.424 139.752 242.864 139.88C240.048 139.88 231.984 139.88 223.536 139.496C225.968 144.104 229.04 151.912 229.68 156.648C241.328 156.648 249.776 156.008 255.28 153.32C260.656 150.504 262.576 145.896 262.576 136.68V36.456H246.32ZM226.992 67.688V71.016C222.64 99.304 210.096 121.576 192.56 133.352C196.272 135.656 202.544 141.928 205.232 145.512C223.536 132.072 237.616 105.96 243.504 71.016L232.88 67.176L230.192 67.688H226.992ZM261.68 55.144L249.52 57.704C258.608 97.256 273.84 130.536 303.536 147.304C306.096 142.568 311.472 136.168 315.312 132.968C286.64 119.272 269.872 89.064 261.68 55.144ZM297.52 56.296C289.584 67.688 276.016 81.64 265.648 90.216L276.656 98.92C287.408 90.856 301.104 77.928 311.984 66.408L297.52 56.296ZM339.376 82.28V96.36H423.088V82.28H339.376ZM372.784 37.096V130.152C372.784 149.736 377.904 155.112 395.568 155.112C399.408 155.112 415.792 155.112 420.016 155.112C435.632 155.112 440.496 147.688 442.672 127.464C437.936 126.312 431.28 123.496 427.44 120.808C426.288 135.912 425.008 139.496 418.48 139.496C415.024 139.496 400.688 139.496 397.36 139.496C390.32 139.496 389.296 138.344 389.296 130.28V37.096H372.784ZM341.808 54.76V69.864H414.384V108.264H341.808V123.24H430.128V54.76H341.808ZM332.08 54.76V130.664H347.952V54.76H332.08ZM497.456 49.512V62.44H567.6V49.512H497.456ZM496.56 107.368V120.296H567.6V107.368H496.56ZM515.248 69.096V80.36H550.448V69.096H515.248ZM508.08 36.328V99.56H558.896V36.328H544.304V87.272H521.904V36.328H508.08ZM526.384 97V156.52H541.232V97H526.384ZM522.928 114.152C516.4 125.416 503.728 136.552 490.8 142.184C494.128 145 498.736 150.504 501.04 154.216C514.48 146.792 527.152 132.84 534.576 118.248L522.928 114.152ZM542.64 114.664L532.016 118.76C538.544 131.816 549.936 145.64 560.56 153.192C562.992 149.48 567.856 144.104 571.184 141.288C560.56 135.528 548.912 124.776 542.64 114.664ZM467.248 37.864V81.128C467.248 103.144 465.456 126.568 449.584 144.232C452.912 146.536 457.776 151.656 459.824 154.856C478.768 134.376 480.944 107.112 480.944 81.256V37.864H467.248ZM486.96 57.96C485.936 66.024 483.504 77.544 481.2 84.84L489.776 88.68C492.464 82.152 495.408 71.4 498.736 62.568L486.96 57.96ZM477.488 106.728L468.4 113.384C473.264 119.656 482.736 133.352 486.96 140.904L496.944 130.92C494 127.08 481.328 110.568 477.488 106.728ZM453.936 63.336C453.552 73.576 451.888 87.144 449.072 95.08L459.312 98.792C462.384 89.576 463.92 75.24 464.048 64.488L453.936 63.336ZM605.744 48.872V61.8H693.04V48.872H605.744ZM607.28 67.944V80.36H682.416V67.944H607.28ZM593.2 87.144V100.328H665.008V87.144H593.2ZM604.464 36.2C598.704 54.12 587.952 71.272 575.28 81.64C578.992 83.688 585.904 88.168 588.976 90.856C601.136 78.952 612.784 60.136 619.952 40.04L604.464 36.2ZM658.736 87.144C659.248 124.392 662.576 156.136 684.464 156.136C694.32 156.136 697.392 149.224 698.544 133.48C695.216 131.304 691.248 127.592 688.304 124.008C688.176 134.504 687.536 140.904 685.488 140.904C677.296 141.032 674.48 115.816 674.48 87.144H658.736ZM726.704 162.664C742.576 157.928 752.048 146.152 752.048 131.688C752.048 120.936 747.184 114.024 738.224 114.024C731.312 114.024 725.552 118.376 725.552 125.544C725.552 132.968 731.44 137.064 737.84 137.064C740.656 137.064 743.344 136.168 745.392 134.248L738.352 122.728L739.248 135.4C739.248 142.696 733.36 148.968 722.608 152.424L726.704 162.664ZM894 104.296V118.632H944.816V104.296H894ZM867.632 111.592L855.088 116.328C867.888 148.456 890.672 155.368 921.904 155.368H949.296C950.064 151.016 952.368 143.976 954.544 140.392C947.376 140.648 928.432 140.776 922.8 140.648C898.096 140.648 876.976 136.04 867.632 111.592ZM887.088 84.84V142.952L902.96 147.944V84.84H887.088ZM865.328 56.424H924.464V73.96H865.328V56.424ZM850.096 41.832V88.552H940.72V41.832H850.096ZM855.6 96.232C853.808 113.896 848.048 134.76 834.352 145.768C837.552 148.072 842.672 153.064 845.232 156.136C860.976 143.336 868.144 119.4 871.728 98.152L855.6 96.232ZM966.192 44.904V60.648H1077.81V44.904H966.192ZM1028.02 87.784C1042.22 98.664 1061.17 114.408 1069.62 124.52L1082.67 112.744C1073.33 102.504 1053.62 87.784 1039.92 77.8L1028.02 87.784ZM1022.9 50.664C1012.27 73.448 989.616 98.28 962.224 111.208C965.424 114.664 970.288 121.064 972.72 125.16C1002.16 109.8 1025.46 83.688 1040.05 56.68L1022.9 50.664ZM1013.55 81.64V156.264H1030.45V64.872L1013.55 81.64ZM1106.35 133.992V149.096H1193.9V133.992H1106.35ZM1141.17 37.608V143.208H1157.17V37.608H1141.17ZM1098.8 101.992V156.52H1114.42V101.992H1098.8ZM1185.71 101.992V156.392H1201.71V101.992H1185.71ZM1103.92 48.36V95.08H1196.59V48.36H1180.34V80.232H1119.28V48.36H1103.92ZM1232.43 55.528V84.712C1232.43 103.4 1231.15 129.896 1217.2 148.2C1221.04 149.864 1227.95 154.728 1230.77 157.544C1245.87 137.704 1248.56 105.96 1248.56 84.712V55.528H1232.43ZM1267.63 39.4C1270.06 45.16 1273.14 52.968 1274.42 57.96L1290.29 53.352C1288.75 48.488 1285.68 41.192 1282.86 35.56L1267.63 39.4ZM1242.54 55.528V69.864H1309.1V111.08H1324.85V55.528H1242.54ZM1242.8 90.088V104.296H1317.04V90.088H1242.8ZM515.248 210.152V224.488H564.528V210.152H515.248ZM539.312 231.272V315.88H553.392V231.272H539.312ZM513.456 281.448L516.528 296.168C530.224 293.736 547.888 290.536 564.784 287.336L564.016 274.024C545.456 276.84 526.256 279.784 513.456 281.448ZM519.216 265.32C519.216 262.632 528.56 257.768 528.56 257.768V257.384C535.472 242.152 543.152 219.88 547.248 199.016L532.528 196.2C530.096 215.4 523.568 236.904 521.392 242.28C519.088 247.912 517.296 251.496 514.608 252.264C516.272 255.976 518.448 262.632 519.216 265.32ZM519.216 265.32C520.368 264.168 525.104 263.4 529.2 263.4H563.376V249.576H525.872L519.216 253.16V265.32ZM569.136 202.6V216.552H616.496V202.6H569.136ZM612.016 202.6V205.288C604.208 223.72 583.344 239.72 561.456 247.144C564.656 250.216 568.88 256.232 570.8 259.944C595.504 250.216 618.032 232.936 628.528 207.336L617.776 201.96L614.96 202.6H612.016ZM562.608 299.368V313.576H633.136V299.368H562.608ZM591.152 271.08V303.848H606.512V271.08H591.152ZM569.136 261.864V275.816H627.632V261.864H569.136ZM588.464 240.232C599.984 245.736 615.984 254.44 623.408 260.072L632.752 247.912C624.688 242.408 608.304 234.6 597.04 229.608L588.464 240.232ZM714.544 246.12C711.216 262.76 704.56 285.16 698.16 299.752L711.472 303.72C718.128 290.024 726.192 268.52 732.336 250.216L714.544 246.12ZM686.64 296.68L689.2 312.168C706.096 311.016 729.52 309.096 751.536 307.176V293.096C727.984 294.504 702.768 295.912 686.64 296.68ZM730.672 275.56C738.096 288.616 746.288 305.896 749.104 316.776L763.696 309.352C760.24 298.472 751.664 281.832 743.984 269.16L730.672 275.56ZM704.688 199.272C701.104 217.448 694.32 235.496 685.36 246.632C689.072 248.936 695.728 254.184 698.416 256.872C707.888 243.944 715.952 223.208 720.688 202.472L704.688 199.272ZM743.6 198.76L729.648 203.112C734.64 221.928 742.576 242.664 751.28 255.72C754.096 251.624 759.856 245.992 763.696 243.176C755.888 232.424 747.824 214.504 743.6 198.76ZM643.632 222.696V237.032H689.456V222.696H643.632ZM660.656 196.328V316.52H675.12V196.328H660.656ZM660.144 232.552C656.816 248.936 649.136 268.904 640.432 280.04C642.736 283.752 646.192 290.024 647.6 294.248C657.2 281.064 665.136 256.232 668.976 235.752L660.144 232.552ZM674.608 243.304L667.696 249.96C671.664 256.36 679.984 270.696 683.312 278.504L691.888 266.728C689.456 263.016 677.808 246.888 674.608 243.304ZM823.728 196.2C823.344 201.064 822.192 208.104 821.168 213.096L832.816 214.376C834.224 210.024 836.272 203.624 838.064 197.096L823.728 196.2ZM822.192 233.064H837.168V239.208H822.192V233.064ZM822.192 217.192H837.168V223.336H822.192V217.192ZM810.288 206.696V249.704H849.584V206.696H810.288ZM809.776 259.304V271.208H851.888V259.304H809.776ZM821.68 277.48L819.504 288.36H843.312V277.48H821.68ZM837.296 277.48V279.144C836.4 296.168 835.248 302.568 833.84 304.488C832.944 305.384 832.048 305.64 830.768 305.64C829.36 305.64 826.928 305.512 823.728 305.256C825.264 307.944 826.416 312.296 826.544 315.368C830.768 315.496 834.864 315.368 837.168 315.112C840.112 314.856 842.416 313.832 844.336 311.528C847.024 308.456 848.304 300.648 849.584 281.96C849.712 280.296 849.84 277.48 849.84 277.48H837.296ZM818.48 268.136C817.712 285.416 815.92 298.984 803.376 307.176C806.192 309.352 809.776 313.704 811.312 316.648C826.928 306.408 830 289.512 831.024 268.136H818.48ZM858.672 196.2C856.752 217.96 853.04 238.824 844.72 251.752C847.408 254.056 852.144 259.304 853.808 261.864C863.664 246.504 868.656 222.824 871.216 197.864L858.672 196.2ZM861.616 221.032L857.904 234.728H889.904V221.032H861.616ZM863.664 232.808L854.064 234.344C858.032 268.136 864.944 299.24 881.072 316.264C883.376 312.424 888.112 307.176 891.312 304.616C875.44 290.536 867.632 262.504 863.664 232.808ZM874.8 224.488C872.368 261.224 865.072 291.944 844.464 306.024C847.92 308.712 852.4 313.448 854.576 316.52C874.928 300.52 883.248 266.856 885.808 229.864L874.8 224.488ZM821.296 252.008C823.088 255.976 825.264 261.48 825.904 264.808L839.344 261.864C838.448 258.536 836.144 253.416 834.096 249.576L821.296 252.008ZM774.192 283.368C774.192 280.936 782.896 276.712 782.896 276.712V276.328C793.008 263.912 803.12 246.504 810.416 230.248L798.64 223.592C792.496 240.36 782 258.28 778.544 262.76C775.216 267.496 772.784 270.568 769.968 271.208C771.504 274.664 773.552 280.808 774.192 283.368ZM774.192 283.368C776.88 281.576 781.36 279.656 806.832 272.744C806.32 269.8 806.064 264.552 806.32 260.84L778.416 267.496L772.912 271.848L774.192 283.368ZM773.296 252.136C773.296 249.704 780.848 245.224 780.848 245.224V244.712C788.656 233.32 796.72 216.936 801.584 202.088L788.144 196.2C784.816 211.048 777.648 227.304 775.344 231.4C773.04 235.496 771.12 238.312 768.688 239.08C770.224 242.664 772.528 249.448 773.296 252.136ZM773.296 252.136C775.728 250.984 779.696 250.088 798 248.168C798 245.224 798.64 239.848 799.408 236.264L779.056 237.672L772.912 241.768L773.296 252.136ZM769.84 296.296L773.168 310.248C783.536 306.024 796.208 300.904 808.24 295.912L805.552 283.88C792.368 288.744 778.928 293.608 769.84 296.296ZM916.656 218.984V229.096H1006.77V202.984H907.44V213.224H992.816V218.984H916.656ZM914.096 234.6L911.28 244.712H1005.36V234.6H914.096ZM1000.5 234.6V236.264C999.984 243.688 999.472 247.016 998.704 248.168C997.936 248.936 997.168 249.064 996.016 249.064C994.608 249.064 992.048 249.064 988.848 248.552C990.128 251.368 991.28 255.464 991.408 258.28C996.528 258.536 1001.14 258.536 1003.57 258.28C1006.38 258.152 1009.07 257.256 1010.99 255.08C1013.17 252.52 1014.06 247.656 1014.7 238.824C1014.7 237.16 1014.83 234.6 1014.83 234.6H1000.5ZM937.264 196.328V224.616C937.264 238.44 932.784 249.576 899.76 255.208C902.32 257.896 906.032 263.784 907.312 266.984C945.2 259.816 951.088 244.2 951.088 224.872V196.328H937.264ZM965.296 196.328V258.152H979.632V196.328H965.296ZM915.888 260.712V295.912H930.736V273.128H985.008V294.632H1000.62V260.712H915.888ZM952.24 277.352C947.76 291.688 938.544 299.368 897.712 303.208C900.272 306.408 903.344 312.68 904.24 316.264C949.552 310.504 962.224 298.472 967.472 277.352H952.24ZM960.176 300.52C976.048 304.616 998.192 311.784 1009.07 316.648L1017.65 305C1005.87 300.136 983.472 293.736 968.112 290.408L960.176 300.52ZM910.768 219.112C909.872 227.56 908.208 237.8 906.672 244.712H920.496C921.904 238.056 923.312 227.816 924.464 219.112H910.768Z" fill="#DAB73C" fill-opacity="0.75"/>
<defs>
<linearGradient id="paint0_linear_105_34" x1="750" y1="0" x2="750" y2="665" gradientUnits="userSpaceOnUse">
<stop stop-color="#FFDB59"/>
<stop offset="1" stop-color="#FFD02B"/>
</linearGradient>
</defs>
</svg>
