<svg width="8839" height="1267" viewBox="0 0 8839 1267" fill="none" xmlns="http://www.w3.org/2000/svg">
<g clip-path="url(#clip0_3_4)">
<rect width="8839" height="1267" fill="#FFC700" fill-opacity="0.72"/>
<circle cx="1271.57" cy="180.375" r="296.5" transform="rotate(-51.9091 1271.57 180.375)" fill="#FFA800"/>
<circle cx="708.557" cy="489.348" r="221" transform="rotate(-51.9091 708.557 489.348)" fill="#FF0000"/>
<circle cx="62.1816" cy="786.342" r="296.5" transform="rotate(-51.9091 62.1816 786.342)" fill="#FFBE0B"/>
<circle cx="638.509" cy="-76.9732" r="296.5" transform="rotate(-51.9091 638.509 -76.9732)" fill="#FF5300"/>
<circle cx="842.207" cy="1075.03" r="296.5" transform="rotate(-51.9091 842.207 1075.03)" fill="#FF3AEB"/>
</g>
<g filter="url(#filter0_b_3_4)">
<rect width="8839" height="1267" fill="white" fill-opacity="0.02"/>
<path d="M3592 409.4C3590 466.6 3583.8 513 3559 541.4C3562.4 543.4 3568.6 548 3570.8 550.2C3595.8 518.6 3602.8 471.4 3605.8 410L3592 409.4ZM3645 409.4C3643.4 467.6 3637.8 513.6 3612.2 541.6C3615.6 543.6 3621.8 548.4 3623.8 550.8C3650 519.4 3656.6 472.4 3659 410L3645 409.4ZM3559.6 450.8C3579.4 469.8 3601.6 496.4 3612 514L3621 503.4C3610.6 486.4 3588.4 460.6 3568 442L3559.6 450.8ZM3614.2 448.6C3635 468.6 3658.8 496.8 3669.8 515.2L3678.8 504.4C3667.8 486.4 3644.2 459.4 3622.8 439.8L3614.2 448.6ZM3537.6 397V568.6H3552V411.4H3696.6V397H3537.6ZM3688.6 397V549.8C3688.6 553 3687.4 554.2 3684 554.2C3680.6 554.4 3669 554.6 3656.8 554C3659 558 3661.2 564.6 3662 568.6C3679 568.6 3689 568.2 3695 566C3701 563.4 3703.4 558.8 3703.4 549.8V397H3688.6ZM3814 449.8V464.8H3896.2V449.8H3814ZM3730.2 544.6V559.6H3909.8V544.6H3730.2ZM3805.4 388V552.6H3821.2V388H3805.4ZM4019.8 394V407.2H4085.8V468.2H4019.8V481.4H4099.6V394H4019.8ZM4020.4 431.4V444H4091.8V431.4H4020.4ZM4056 474L4044.2 476.4C4053.4 519 4072 551.8 4103.8 567.6C4106 563.6 4110.4 557.6 4113.6 554.6C4083 541.8 4064.4 511.6 4056 474ZM4100.6 488.4C4091.4 497.2 4075 509 4063.8 515.8L4071.6 525.4C4083.2 518.8 4098.8 508.4 4110.2 498.8L4100.6 488.4ZM4011.8 569.2C4015.8 566.6 4022 564.4 4063.2 553C4062.8 549.8 4062.4 543.6 4062.6 539.4L4017.8 550.2L4010.8 555.8L4011.8 569.2ZM4011.8 569.2C4011.8 563.6 4027.2 554.4 4027.2 554.4V394H4012.4V542.6C4012.4 550.8 4008.2 555 4005 556.8C4007.4 559.6 4010.8 565.8 4011.8 569.2ZM3955.6 385.6C3949.4 404.4 3938.8 422.2 3926.6 434C3929.2 437.4 3933.2 445 3934.4 448.2C3948.6 433.6 3961.6 411.6 3969.2 389.6L3955.6 385.6ZM3952 408L3949 422.2H4001V408H3952ZM3942 443.6V457.2H3998.2V443.6H3942ZM3931.6 484.4V498H4002.6V484.4H3931.6ZM3958.2 567.6C3961.6 564.2 3967.2 561 4004.8 541.6C4003.8 538.6 4002.8 532.6 4002.4 528.8L3961.8 548.4L3956.4 554.4L3958.2 567.6ZM3958.2 567.6C3958.2 562.4 3973.8 554.2 3973.8 554.2V448.4H3959.6V541.8C3959.6 549.8 3955.2 553.2 3952 554.8C3954.2 557.8 3957.2 564.2 3958.2 567.6ZM4207 397.2V411.6H4305.2V397.2H4207ZM4265.4 456.8V549.6C4265.4 553 4264.2 553.8 4260.2 554C4256.6 554.2 4243.2 554.2 4229 553.8C4231.2 558.2 4233.2 564.4 4233.8 568.6C4253.4 568.6 4264.8 568.4 4271.6 566.2C4278.4 563.8 4280.6 559.2 4280.6 549.8V456.8H4265.4ZM4198.2 452.4V466.6H4311V452.4H4198.2ZM4158.2 467.8V569.6H4173.2V455.6L4171.4 454.8L4158.2 467.8ZM4181.4 427.8C4167.6 450.8 4145.6 474 4124.8 488.8C4128 491.6 4133.2 498.2 4135.4 501.2C4156.4 484.4 4180 458.6 4195.6 433.2L4181.4 427.8ZM4173.2 385C4163 399.4 4143.6 417.4 4127 428.6C4129.6 431.6 4133.6 437.4 4135.8 440.6C4153.6 427.8 4174.2 408.4 4187.6 390.8L4173.2 385ZM4419.2 399.6C4437.2 424.8 4472.2 454.6 4503.2 472.4C4505.8 468 4509.4 463 4513.2 459.2C4481.8 443.6 4446.8 414.4 4426 384.8H4410.6C4395.2 410.8 4361.8 442.6 4327.4 461.6C4330.6 464.8 4334.8 470 4336.8 473.6C4370.6 453.8 4402.8 424 4419.2 399.6ZM4351.6 503.6V517H4488V503.6H4351.6ZM4360.6 458.8V472.4H4480.2V458.8H4360.6ZM4335.2 550V563.6H4505.6V550H4335.2ZM4411.4 464.4V557.6H4427.2V464.4H4411.4ZM4637.4 452.6V466.6H4711.8V452.6H4637.4ZM4532.2 406V418.8H4620.4V406H4532.2ZM4530 485.4V498.4H4621.4V485.4H4530ZM4529.4 451.8V464.6H4622.8V451.8H4529.4ZM4674.6 458.2V568H4689.2V458.2H4674.6ZM4569.2 385.8V412.6H4583.8V385.8H4569.2ZM4569.2 462.2V568.8H4583.8V462.2H4569.2ZM4630.2 401.4V471.4C4630.2 499.8 4627.4 534.4 4601.8 559.6C4605.4 561.6 4610.8 566.6 4612.6 570C4640.8 542.2 4644.4 501.6 4644.4 471.6V409.8C4647.2 409.4 4648.4 408.6 4648.6 407L4630.2 401.4ZM4697.2 387.4C4682.6 394.6 4656.2 401.6 4633.8 406.4C4635.6 409.4 4637.6 414.6 4638.4 417.8C4662.4 413.6 4690.4 406.8 4709.2 398.4L4697.2 387.4ZM4582.4 502.2L4574.2 509C4581.6 515.2 4600.4 532.8 4606.8 540.2L4615.6 529C4610.6 524.4 4588.8 506.6 4582.4 502.2ZM4544.2 422.4C4548.2 431.6 4551.4 443.6 4552 451.4L4564.6 448C4563.6 440.4 4560.2 428.6 4556 419.8L4544.2 422.4ZM4595.4 419.4C4593.2 427.8 4589 440.2 4585.4 448.2L4597.4 451C4601 443.6 4605.2 432.4 4609 422.4L4595.4 419.4ZM4569.4 492C4559.8 511.6 4541.6 533.2 4525.4 543.8C4528.8 546.2 4533.2 551 4535.6 554.4C4551.6 542 4570 518.4 4580.2 496.2L4569.4 492ZM4770 385.8C4760.2 416 4743.8 446 4726 465.6C4728.8 469.2 4733.2 477 4734.8 480.4C4754.4 457.8 4772.6 423.8 4784.2 390L4770 385.8ZM4752 437.4V568.8H4766.2V423.4L4766 423.2L4752 437.4ZM4836 385.8V568H4850.6V385.8H4836ZM4779.6 425.4V439.8H4910.6V425.4H4779.6ZM4803 518.2V531.8H4883V518.2H4803ZM4857.8 432.8L4846.6 436.2C4858.4 475.2 4879.8 515 4903.2 536.4C4906 532.4 4911 527.2 4914.6 524.6C4891.2 505.8 4869.2 468.6 4857.8 432.8ZM4829.8 432C4818 468.6 4795.2 506.6 4771.8 525.6C4775.2 528 4780.2 533.2 4782.4 537C4806.6 515 4828.4 475.4 4840.8 435.4L4829.8 432ZM4989.4 478.6V481C4986.6 529.6 4983.4 548 4978.8 552.6C4977 554.8 4975 555 4971.6 555C4968 555 4958.8 554.8 4948.8 553.8C4951.2 557.4 4952.6 562.6 4952.8 566.6C4962.4 567 4971.8 567.2 4977 566.8C4982.8 566.4 4986.6 565 4990 561C4996.2 554.6 4999.2 535.6 5002.4 484.8C5002.6 482.8 5002.6 478.6 5002.6 478.6H4989.4ZM4926.2 523.6L4929.2 536C4944.2 532 4962.6 526.8 4980.8 521.8L4979.4 510.2C4959.6 515.4 4940 520.6 4926.2 523.6ZM4932.8 394.2V407H4985.6V394.2H4932.8ZM4981.2 394.2C4980 421.6 4976.4 460 4973.2 482.6L4986.4 481.8C4989 460.4 4992.4 422.4 4994.2 394.2H4981.2ZM4941.2 422C4940 443.6 4937.4 473.2 4935 491H4947.8C4950.2 473.8 4952.6 444.6 4954 422.8L4941.2 422ZM4939.6 478.6V491H4991.6V478.6H4939.6ZM5058.2 391.4L5047.2 398.4C5060.8 420.6 5085.6 447.2 5107.2 463C5108.6 458.8 5112 452.4 5114.8 449C5094.4 436 5070.2 411.6 5058.2 391.4ZM5053.2 383.6C5041 411.6 5019 436.2 4994.8 451.4C4997.6 454.4 5002.2 460.6 5003.8 463.4C5028.8 446 5052.2 419 5066.4 388L5053.2 383.6ZM5026.6 447V460.2H5086.2V447H5026.6ZM5013.4 480.6C5019 496 5024.6 515.8 5026.2 528.8L5038.4 525.6C5036.6 512.6 5031 492.8 5025 477.8L5013.4 480.6ZM5048.6 475.6C5052.2 490.8 5055.8 510.6 5056.6 523.6L5069 521.6C5068 508.6 5064.4 489.2 5060.4 474L5048.6 475.6ZM5093.8 476.8C5087.2 498.6 5074.4 529.6 5064.2 548.2L5075.2 551.6C5085.8 533.4 5098.4 503.6 5107.6 480L5093.8 476.8ZM5007 546V559.2H5109V546H5007ZM3528.8 766.8V783.2H3711.8V766.8H3528.8ZM3731.4 724.8V739H3808.6V724.8H3731.4ZM3763.2 687.6V732H3777.4V687.6H3763.2ZM3854.6 726.6V740.8H3912V726.6H3854.6ZM3820.2 845.2V859.4H3895.8V845.2H3820.2ZM3847 685V787H3862.2V685H3847ZM3813.2 780.8V868.8H3827.8V794.8H3888.2V868H3903.4V780.8H3813.2ZM3727.6 831.4L3730.8 846.4C3752.8 841.4 3783.2 834.2 3811.6 827.4L3810 813.6C3779.8 820.6 3748.2 827.4 3727.6 831.4ZM3739 749.4C3743.6 771.6 3747.2 800.6 3747 819.4L3760.2 817.2C3759.8 797.8 3756.4 769.4 3751.2 747.2L3739 749.4ZM3785.6 745C3783.6 768.4 3778.8 802 3774.2 821.8L3786.6 824.6C3791.4 805 3796.8 772.8 3800.4 747.8L3785.6 745ZM4061.8 695C4072.2 702.2 4084.4 713 4090.4 720.2L4101 710.8C4094.8 703.8 4082.2 693.4 4071.8 686.4L4061.8 695ZM3931 722.4V737H4109.2V722.4H3931ZM3937.8 767V781.6H4026.2V767H3937.8ZM3973.8 774.8V846.2H3988.8V774.8H3973.8ZM3931.8 848.2L3936.4 863.2C3962.2 857.4 3998.8 849 4033 841L4031.8 827.6C3994.8 835.6 3955.6 843.6 3931.8 848.2ZM4032.8 686C4033.6 782.8 4049.8 869.4 4089.6 869.4C4105 869.4 4110.8 859.2 4113.4 824.2C4109.2 822.8 4103.4 819.4 4100 816C4098.8 842.8 4096.4 853.8 4090.8 853.8C4066.2 853.8 4048.2 778.8 4048.8 686H4032.8ZM4147.6 692.4V706.4H4194V692.4H4147.6ZM4147.6 739.2V753.2H4194.4V739.2H4147.6ZM4225.6 761V775H4298.2V761H4225.6ZM4147.2 787.2V801.4H4194V787.2H4147.2ZM4141.4 692.4V764.4C4141.4 793.8 4140.4 834 4126.6 862.2C4130.2 863.6 4136.2 867 4139 869.4C4153.2 839.8 4155.2 795.6 4155.2 764.4V692.4H4141.4ZM4185.6 692.4V851C4185.6 853.8 4184.6 854.6 4181.8 854.8C4179.4 855 4171 855 4161.6 854.8C4163.6 858.6 4165.4 865.4 4166 869C4179.6 869.2 4187.6 868.8 4192.8 866.4C4197.8 863.8 4199.6 859.2 4199.6 851.2V692.4H4185.6ZM4287.8 693V731.6C4287.8 734 4287 734.8 4283.8 734.8C4280.6 735 4270 735 4258 734.8C4259.8 738.4 4262 743.4 4262.8 747.6C4278 747.6 4288 747.6 4294.2 745.4C4300.6 743.2 4302.2 739.2 4302.2 731.8V693H4287.8ZM4294.2 761V763.8C4285.6 807.6 4260.8 841.8 4232.4 856.8C4235.4 859.4 4239.4 864.6 4241.2 868C4272.4 849.4 4298 814.8 4308 763.6L4299.2 760.6L4296.8 761H4294.2ZM4248 769.6L4236 772.8C4248.6 815.4 4271.8 851.6 4304.2 869.2C4306.4 865.8 4310.6 860.6 4314 857.8C4282.6 842.6 4259.4 808.4 4248 769.6ZM4217.2 693V869H4231.4V707H4291.8V693H4217.2ZM4345.2 796.8V810H4484V796.8H4345.2ZM4479 796.8L4478.8 798.8C4475.2 832.8 4470.8 848 4465.6 852.4C4463.4 854 4461 854.2 4456.8 854.2C4451.8 854.2 4438.8 854 4426.2 852.8C4428.8 856.6 4430.8 862.2 4431 866.2C4443 867 4455 867 4461 866.8C4468.4 866.4 4473 865.4 4477.2 861.4C4484.2 855.2 4488.6 839.8 4493.2 803.4C4493.6 801.2 4494 796.8 4494 796.8H4479ZM4409 776.8C4403.4 825.2 4379.6 846.8 4331.2 856C4334 859 4338 865.4 4339.6 868.8C4390.2 856.4 4416.6 832.4 4424.6 778.2L4409 776.8ZM4384.2 705.6V718.6H4481.2V705.6H4384.2ZM4477.6 705.6V707.6C4453.4 744 4388.4 762.8 4329 768.4C4331.4 771.8 4334 777.8 4335 781.6C4396.8 774.4 4463.4 754.4 4492.4 711.2L4483.2 705L4480.6 705.6H4477.6ZM4384 720.8L4371.6 726C4396.8 759 4445.2 774.4 4503.6 779.2C4505.4 775 4509 769.2 4512 765.8C4454.2 762.4 4405.8 749 4384 720.8ZM4396.4 684.8C4386 702.4 4366.2 722.8 4338 737.4C4341 739.6 4345.4 745 4347.4 748.6C4377.8 731.6 4398.6 709.6 4412 687.8L4396.4 684.8ZM4530.4 719.6V734H4709.4V719.6H4530.4ZM4595.8 767V781.4H4675.8V767H4595.8ZM4670.4 767L4670.2 769.6C4666.8 824.4 4662.8 846.8 4656.4 852.6C4654.2 854.6 4651.4 854.8 4647 854.8C4641.8 854.8 4627.6 854.8 4613.2 853.4C4616 857.6 4618.2 863.8 4618.4 868.2C4632 868.8 4645.2 869.2 4652.2 868.8C4659.8 868.2 4664.8 866.8 4669.4 862C4677.2 854 4681.2 831.8 4685.2 774.2C4685.6 772 4685.8 767 4685.8 767H4670.4ZM4592.4 727.6C4590.2 775.4 4586.8 831.2 4528.4 857.6C4532.2 860.6 4537 866 4539.2 869.8C4600.2 840.6 4606 780.6 4609 727.6H4592.4ZM4611.4 684.6V725.8H4626.8V684.6H4611.4ZM4785.6 696.6V710H4909.2V696.6H4785.6ZM4798.4 808.2L4785.2 812.8C4807 846.6 4849.6 862.8 4904.8 867.8C4906.8 863.6 4910.6 857.4 4913.8 854C4859.6 850.4 4817.2 836.4 4798.4 808.2ZM4805 770.4H4887.8V791.4H4805V770.4ZM4805 738.6H4887.8V759.2H4805V738.6ZM4791 727V803H4902.2V727H4791ZM4840.2 700.6V780.4C4840.2 811.6 4836.4 843 4773.4 857.4C4776.6 860.4 4780.8 866.2 4782.6 869.6C4846.4 851.8 4855 816.8 4855 780.4V700.6H4840.2ZM4771.4 685.8C4761.4 716 4744.8 746 4727 765.6C4729.8 769.2 4734.2 777 4735.8 780.4C4755.6 757.8 4773.8 723.8 4785.4 690L4771.4 685.8ZM4752 737.4V868.8H4766.4V723.4L4766 723.2L4752 737.4ZM4954 685V868.8H4968.8V685H4954ZM4936 723.6C4934.6 739.8 4930.8 761.8 4925.6 775.2L4937.4 779.2C4942.6 764.6 4946.4 741.6 4947.4 725.4L4936 723.6ZM4969.2 721.8C4975.2 733.8 4981.8 749.8 4984 759.4L4995.4 753.6C4992.8 744.4 4986.2 729 4980 717.2L4969.2 721.8ZM4996.6 717V731.2H5080.8V785H5095.6V717H4996.6ZM4986 777V791.4H5112.8V777H4986ZM5053.2 780L5039.8 782.8C5050.6 823 5070.6 855.2 5103.8 869.6C5106.2 865.4 5111 859 5114.6 855.8C5083.2 844.2 5062.6 814.6 5053.2 780ZM5035.8 685V751.8C5035.8 786.8 5033.8 831 4979.4 858.2C4982.8 861.2 4987.8 866.6 4989.8 869.8C5045.8 839.2 5050.8 791 5050.8 751.8V685H5035.8ZM5191.8 703V715.2H5308.6V703H5191.8ZM5249.2 814V826.4H5301V814H5249.2ZM5189.2 755.8V768H5313.6V755.8H5189.2ZM5200.6 728.8V740.8H5285.2V784.6H5200.6V796.6H5299.2V728.8H5200.6ZM5241.6 685V851.8L5255.6 859V685H5241.6ZM5202.8 800C5199.4 826 5190.8 847.6 5175.2 861.4C5178.6 863.2 5184.4 867.4 5186.8 869.8C5202.6 854.4 5212.4 830.8 5216.8 801.8L5202.8 800ZM5211.4 818L5200.4 822.6C5214.2 858.8 5237 867.4 5273.8 867.4H5308.8C5309.4 863.6 5311.4 857.4 5313.4 854.2C5306.6 854.2 5279 854.2 5274.4 854.2C5244 854.2 5222.2 847.6 5211.4 818ZM5125.4 788.8L5129.4 803.4C5146.4 798 5168.4 790.8 5189.2 783.6L5187.2 769.8C5164.4 777.2 5141 784.4 5125.4 788.8ZM5128.2 725.4V739.4H5189V725.4H5128.2ZM5153.4 685.2V851.6C5153.4 854.6 5152.2 855.2 5149.8 855.2C5147.4 855.4 5139.8 855.4 5131 855.2C5133 859.4 5134.8 865.6 5135.4 869.2C5148 869.2 5155.8 868.8 5160.4 866.4C5165.4 864 5167.4 860 5167.4 851.6V685.2H5153.4Z" fill="#003261"/>
</g>
<defs>
<filter id="filter0_b_3_4" x="-500" y="-500" width="9839" height="2267" filterUnits="userSpaceOnUse" color-interpolation-filters="sRGB">
<feFlood flood-opacity="0" result="BackgroundImageFix"/>
<feGaussianBlur in="BackgroundImage" stdDeviation="250"/>
<feComposite in2="SourceAlpha" operator="in" result="effect1_backgroundBlur_3_4"/>
<feBlend mode="normal" in="SourceGraphic" in2="effect1_backgroundBlur_3_4" result="shape"/>
</filter>
<clipPath id="clip0_3_4">
<rect width="8839" height="1267" fill="white"/>
</clipPath>
</defs>
</svg>
