<svg width="3049" height="1267" viewBox="0 0 3049 1267" fill="none" xmlns="http://www.w3.org/2000/svg">
<g clip-path="url(#clip0_3_4)">
<rect width="3049" height="1267" fill="#FFC700" fill-opacity="0.72"/>
<circle cx="1271.57" cy="180.375" r="296.5" transform="rotate(-51.9091 1271.57 180.375)" fill="#FFA800"/>
<circle cx="708.557" cy="489.348" r="221" transform="rotate(-51.9091 708.557 489.348)" fill="#FF0000"/>
<circle cx="62.1816" cy="786.342" r="296.5" transform="rotate(-51.9091 62.1816 786.342)" fill="#FFBE0B"/>
<circle cx="638.509" cy="-76.9732" r="296.5" transform="rotate(-51.9091 638.509 -76.9732)" fill="#FF5300"/>
<circle cx="842.207" cy="1075.03" r="296.5" transform="rotate(-51.9091 842.207 1075.03)" fill="#FF3AEB"/>
</g>
<g filter="url(#filter0_b_3_4)">
<rect width="3049" height="1267" fill="white" fill-opacity="0.02"/>
<path d="M752 329.4C750 386.6 743.8 433 719 461.4C722.4 463.4 728.6 468 730.8 470.2C755.8 438.6 762.8 391.4 765.8 330L752 329.4ZM805 329.4C803.4 387.6 797.8 433.6 772.2 461.6C775.6 463.6 781.8 468.4 783.8 470.8C810 439.4 816.6 392.4 819 330L805 329.4ZM719.6 370.8C739.4 389.8 761.6 416.4 772 434L781 423.4C770.6 406.4 748.4 380.6 728 362L719.6 370.8ZM774.2 368.6C795 388.6 818.8 416.8 829.8 435.2L838.8 424.4C827.8 406.4 804.2 379.4 782.8 359.8L774.2 368.6ZM697.6 317V488.6H712V331.4H856.6V317H697.6ZM848.6 317V469.8C848.6 473 847.4 474.2 844 474.2C840.6 474.4 829 474.6 816.8 474C819 478 821.2 484.6 822 488.6C839 488.6 849 488.2 855 486C861 483.4 863.4 478.8 863.4 469.8V317H848.6ZM974 369.8V384.8H1056.2V369.8H974ZM890.2 464.6V479.6H1069.8V464.6H890.2ZM965.4 308V472.6H981.2V308H965.4ZM1179.8 314V327.2H1245.8V388.2H1179.8V401.4H1259.6V314H1179.8ZM1180.4 351.4V364H1251.8V351.4H1180.4ZM1216 394L1204.2 396.4C1213.4 439 1232 471.8 1263.8 487.6C1266 483.6 1270.4 477.6 1273.6 474.6C1243 461.8 1224.4 431.6 1216 394ZM1260.6 408.4C1251.4 417.2 1235 429 1223.8 435.8L1231.6 445.4C1243.2 438.8 1258.8 428.4 1270.2 418.8L1260.6 408.4ZM1171.8 489.2C1175.8 486.6 1182 484.4 1223.2 473C1222.8 469.8 1222.4 463.6 1222.6 459.4L1177.8 470.2L1170.8 475.8L1171.8 489.2ZM1171.8 489.2C1171.8 483.6 1187.2 474.4 1187.2 474.4V314H1172.4V462.6C1172.4 470.8 1168.2 475 1165 476.8C1167.4 479.6 1170.8 485.8 1171.8 489.2ZM1115.6 305.6C1109.4 324.4 1098.8 342.2 1086.6 354C1089.2 357.4 1093.2 365 1094.4 368.2C1108.6 353.6 1121.6 331.6 1129.2 309.6L1115.6 305.6ZM1112 328L1109 342.2H1161V328H1112ZM1102 363.6V377.2H1158.2V363.6H1102ZM1091.6 404.4V418H1162.6V404.4H1091.6ZM1118.2 487.6C1121.6 484.2 1127.2 481 1164.8 461.6C1163.8 458.6 1162.8 452.6 1162.4 448.8L1121.8 468.4L1116.4 474.4L1118.2 487.6ZM1118.2 487.6C1118.2 482.4 1133.8 474.2 1133.8 474.2V368.4H1119.6V461.8C1119.6 469.8 1115.2 473.2 1112 474.8C1114.2 477.8 1117.2 484.2 1118.2 487.6ZM1367 317.2V331.6H1465.2V317.2H1367ZM1425.4 376.8V469.6C1425.4 473 1424.2 473.8 1420.2 474C1416.6 474.2 1403.2 474.2 1389 473.8C1391.2 478.2 1393.2 484.4 1393.8 488.6C1413.4 488.6 1424.8 488.4 1431.6 486.2C1438.4 483.8 1440.6 479.2 1440.6 469.8V376.8H1425.4ZM1358.2 372.4V386.6H1471V372.4H1358.2ZM1318.2 387.8V489.6H1333.2V375.6L1331.4 374.8L1318.2 387.8ZM1341.4 347.8C1327.6 370.8 1305.6 394 1284.8 408.8C1288 411.6 1293.2 418.2 1295.4 421.2C1316.4 404.4 1340 378.6 1355.6 353.2L1341.4 347.8ZM1333.2 305C1323 319.4 1303.6 337.4 1287 348.6C1289.6 351.6 1293.6 357.4 1295.8 360.6C1313.6 347.8 1334.2 328.4 1347.6 310.8L1333.2 305ZM1579.2 319.6C1597.2 344.8 1632.2 374.6 1663.2 392.4C1665.8 388 1669.4 383 1673.2 379.2C1641.8 363.6 1606.8 334.4 1586 304.8H1570.6C1555.2 330.8 1521.8 362.6 1487.4 381.6C1490.6 384.8 1494.8 390 1496.8 393.6C1530.6 373.8 1562.8 344 1579.2 319.6ZM1511.6 423.6V437H1648V423.6H1511.6ZM1520.6 378.8V392.4H1640.2V378.8H1520.6ZM1495.2 470V483.6H1665.6V470H1495.2ZM1571.4 384.4V477.6H1587.2V384.4H1571.4ZM1797.4 372.6V386.6H1871.8V372.6H1797.4ZM1692.2 326V338.8H1780.4V326H1692.2ZM1690 405.4V418.4H1781.4V405.4H1690ZM1689.4 371.8V384.6H1782.8V371.8H1689.4ZM1834.6 378.2V488H1849.2V378.2H1834.6ZM1729.2 305.8V332.6H1743.8V305.8H1729.2ZM1729.2 382.2V488.8H1743.8V382.2H1729.2ZM1790.2 321.4V391.4C1790.2 419.8 1787.4 454.4 1761.8 479.6C1765.4 481.6 1770.8 486.6 1772.6 490C1800.8 462.2 1804.4 421.6 1804.4 391.6V329.8C1807.2 329.4 1808.4 328.6 1808.6 327L1790.2 321.4ZM1857.2 307.4C1842.6 314.6 1816.2 321.6 1793.8 326.4C1795.6 329.4 1797.6 334.6 1798.4 337.8C1822.4 333.6 1850.4 326.8 1869.2 318.4L1857.2 307.4ZM1742.4 422.2L1734.2 429C1741.6 435.2 1760.4 452.8 1766.8 460.2L1775.6 449C1770.6 444.4 1748.8 426.6 1742.4 422.2ZM1704.2 342.4C1708.2 351.6 1711.4 363.6 1712 371.4L1724.6 368C1723.6 360.4 1720.2 348.6 1716 339.8L1704.2 342.4ZM1755.4 339.4C1753.2 347.8 1749 360.2 1745.4 368.2L1757.4 371C1761 363.6 1765.2 352.4 1769 342.4L1755.4 339.4ZM1729.4 412C1719.8 431.6 1701.6 453.2 1685.4 463.8C1688.8 466.2 1693.2 471 1695.6 474.4C1711.6 462 1730 438.4 1740.2 416.2L1729.4 412ZM1930 305.8C1920.2 336 1903.8 366 1886 385.6C1888.8 389.2 1893.2 397 1894.8 400.4C1914.4 377.8 1932.6 343.8 1944.2 310L1930 305.8ZM1912 357.4V488.8H1926.2V343.4L1926 343.2L1912 357.4ZM1996 305.8V488H2010.6V305.8H1996ZM1939.6 345.4V359.8H2070.6V345.4H1939.6ZM1963 438.2V451.8H2043V438.2H1963ZM2017.8 352.8L2006.6 356.2C2018.4 395.2 2039.8 435 2063.2 456.4C2066 452.4 2071 447.2 2074.6 444.6C2051.2 425.8 2029.2 388.6 2017.8 352.8ZM1989.8 352C1978 388.6 1955.2 426.6 1931.8 445.6C1935.2 448 1940.2 453.2 1942.4 457C1966.6 435 1988.4 395.4 2000.8 355.4L1989.8 352ZM2149.4 398.6V401C2146.6 449.6 2143.4 468 2138.8 472.6C2137 474.8 2135 475 2131.6 475C2128 475 2118.8 474.8 2108.8 473.8C2111.2 477.4 2112.6 482.6 2112.8 486.6C2122.4 487 2131.8 487.2 2137 486.8C2142.8 486.4 2146.6 485 2150 481C2156.2 474.6 2159.2 455.6 2162.4 404.8C2162.6 402.8 2162.6 398.6 2162.6 398.6H2149.4ZM2086.2 443.6L2089.2 456C2104.2 452 2122.6 446.8 2140.8 441.8L2139.4 430.2C2119.6 435.4 2100 440.6 2086.2 443.6ZM2092.8 314.2V327H2145.6V314.2H2092.8ZM2141.2 314.2C2140 341.6 2136.4 380 2133.2 402.6L2146.4 401.8C2149 380.4 2152.4 342.4 2154.2 314.2H2141.2ZM2101.2 342C2100 363.6 2097.4 393.2 2095 411H2107.8C2110.2 393.8 2112.6 364.6 2114 342.8L2101.2 342ZM2099.6 398.6V411H2151.6V398.6H2099.6ZM2218.2 311.4L2207.2 318.4C2220.8 340.6 2245.6 367.2 2267.2 383C2268.6 378.8 2272 372.4 2274.8 369C2254.4 356 2230.2 331.6 2218.2 311.4ZM2213.2 303.6C2201 331.6 2179 356.2 2154.8 371.4C2157.6 374.4 2162.2 380.6 2163.8 383.4C2188.8 366 2212.2 339 2226.4 308L2213.2 303.6ZM2186.6 367V380.2H2246.2V367H2186.6ZM2173.4 400.6C2179 416 2184.6 435.8 2186.2 448.8L2198.4 445.6C2196.6 432.6 2191 412.8 2185 397.8L2173.4 400.6ZM2208.6 395.6C2212.2 410.8 2215.8 430.6 2216.6 443.6L2229 441.6C2228 428.6 2224.4 409.2 2220.4 394L2208.6 395.6ZM2253.8 396.8C2247.2 418.6 2234.4 449.6 2224.2 468.2L2235.2 471.6C2245.8 453.4 2258.4 423.6 2267.6 400L2253.8 396.8ZM2167 466V479.2H2269V466H2167ZM688.8 686.8V703.2H871.8V686.8H688.8ZM891.4 644.8V659H968.6V644.8H891.4ZM923.2 607.6V652H937.4V607.6H923.2ZM1014.6 646.6V660.8H1072V646.6H1014.6ZM980.2 765.2V779.4H1055.8V765.2H980.2ZM1007 605V707H1022.2V605H1007ZM973.2 700.8V788.8H987.8V714.8H1048.2V788H1063.4V700.8H973.2ZM887.6 751.4L890.8 766.4C912.8 761.4 943.2 754.2 971.6 747.4L970 733.6C939.8 740.6 908.2 747.4 887.6 751.4ZM899 669.4C903.6 691.6 907.2 720.6 907 739.4L920.2 737.2C919.8 717.8 916.4 689.4 911.2 667.2L899 669.4ZM945.6 665C943.6 688.4 938.8 722 934.2 741.8L946.6 744.6C951.4 725 956.8 692.8 960.4 667.8L945.6 665ZM1221.8 615C1232.2 622.2 1244.4 633 1250.4 640.2L1261 630.8C1254.8 623.8 1242.2 613.4 1231.8 606.4L1221.8 615ZM1091 642.4V657H1269.2V642.4H1091ZM1097.8 687V701.6H1186.2V687H1097.8ZM1133.8 694.8V766.2H1148.8V694.8H1133.8ZM1091.8 768.2L1096.4 783.2C1122.2 777.4 1158.8 769 1193 761L1191.8 747.6C1154.8 755.6 1115.6 763.6 1091.8 768.2ZM1192.8 606C1193.6 702.8 1209.8 789.4 1249.6 789.4C1265 789.4 1270.8 779.2 1273.4 744.2C1269.2 742.8 1263.4 739.4 1260 736C1258.8 762.8 1256.4 773.8 1250.8 773.8C1226.2 773.8 1208.2 698.8 1208.8 606H1192.8ZM1307.6 612.4V626.4H1354V612.4H1307.6ZM1307.6 659.2V673.2H1354.4V659.2H1307.6ZM1385.6 681V695H1458.2V681H1385.6ZM1307.2 707.2V721.4H1354V707.2H1307.2ZM1301.4 612.4V684.4C1301.4 713.8 1300.4 754 1286.6 782.2C1290.2 783.6 1296.2 787 1299 789.4C1313.2 759.8 1315.2 715.6 1315.2 684.4V612.4H1301.4ZM1345.6 612.4V771C1345.6 773.8 1344.6 774.6 1341.8 774.8C1339.4 775 1331 775 1321.6 774.8C1323.6 778.6 1325.4 785.4 1326 789C1339.6 789.2 1347.6 788.8 1352.8 786.4C1357.8 783.8 1359.6 779.2 1359.6 771.2V612.4H1345.6ZM1447.8 613V651.6C1447.8 654 1447 654.8 1443.8 654.8C1440.6 655 1430 655 1418 654.8C1419.8 658.4 1422 663.4 1422.8 667.6C1438 667.6 1448 667.6 1454.2 665.4C1460.6 663.2 1462.2 659.2 1462.2 651.8V613H1447.8ZM1454.2 681V683.8C1445.6 727.6 1420.8 761.8 1392.4 776.8C1395.4 779.4 1399.4 784.6 1401.2 788C1432.4 769.4 1458 734.8 1468 683.6L1459.2 680.6L1456.8 681H1454.2ZM1408 689.6L1396 692.8C1408.6 735.4 1431.8 771.6 1464.2 789.2C1466.4 785.8 1470.6 780.6 1474 777.8C1442.6 762.6 1419.4 728.4 1408 689.6ZM1377.2 613V789H1391.4V627H1451.8V613H1377.2ZM1505.2 716.8V730H1644V716.8H1505.2ZM1639 716.8L1638.8 718.8C1635.2 752.8 1630.8 768 1625.6 772.4C1623.4 774 1621 774.2 1616.8 774.2C1611.8 774.2 1598.8 774 1586.2 772.8C1588.8 776.6 1590.8 782.2 1591 786.2C1603 787 1615 787 1621 786.8C1628.4 786.4 1633 785.4 1637.2 781.4C1644.2 775.2 1648.6 759.8 1653.2 723.4C1653.6 721.2 1654 716.8 1654 716.8H1639ZM1569 696.8C1563.4 745.2 1539.6 766.8 1491.2 776C1494 779 1498 785.4 1499.6 788.8C1550.2 776.4 1576.6 752.4 1584.6 698.2L1569 696.8ZM1544.2 625.6V638.6H1641.2V625.6H1544.2ZM1637.6 625.6V627.6C1613.4 664 1548.4 682.8 1489 688.4C1491.4 691.8 1494 697.8 1495 701.6C1556.8 694.4 1623.4 674.4 1652.4 631.2L1643.2 625L1640.6 625.6H1637.6ZM1544 640.8L1531.6 646C1556.8 679 1605.2 694.4 1663.6 699.2C1665.4 695 1669 689.2 1672 685.8C1614.2 682.4 1565.8 669 1544 640.8ZM1556.4 604.8C1546 622.4 1526.2 642.8 1498 657.4C1501 659.6 1505.4 665 1507.4 668.6C1537.8 651.6 1558.6 629.6 1572 607.8L1556.4 604.8ZM1690.4 639.6V654H1869.4V639.6H1690.4ZM1755.8 687V701.4H1835.8V687H1755.8ZM1830.4 687L1830.2 689.6C1826.8 744.4 1822.8 766.8 1816.4 772.6C1814.2 774.6 1811.4 774.8 1807 774.8C1801.8 774.8 1787.6 774.8 1773.2 773.4C1776 777.6 1778.2 783.8 1778.4 788.2C1792 788.8 1805.2 789.2 1812.2 788.8C1819.8 788.2 1824.8 786.8 1829.4 782C1837.2 774 1841.2 751.8 1845.2 694.2C1845.6 692 1845.8 687 1845.8 687H1830.4ZM1752.4 647.6C1750.2 695.4 1746.8 751.2 1688.4 777.6C1692.2 780.6 1697 786 1699.2 789.8C1760.2 760.6 1766 700.6 1769 647.6H1752.4ZM1771.4 604.6V645.8H1786.8V604.6H1771.4ZM1945.6 616.6V630H2069.2V616.6H1945.6ZM1958.4 728.2L1945.2 732.8C1967 766.6 2009.6 782.8 2064.8 787.8C2066.8 783.6 2070.6 777.4 2073.8 774C2019.6 770.4 1977.2 756.4 1958.4 728.2ZM1965 690.4H2047.8V711.4H1965V690.4ZM1965 658.6H2047.8V679.2H1965V658.6ZM1951 647V723H2062.2V647H1951ZM2000.2 620.6V700.4C2000.2 731.6 1996.4 763 1933.4 777.4C1936.6 780.4 1940.8 786.2 1942.6 789.6C2006.4 771.8 2015 736.8 2015 700.4V620.6H2000.2ZM1931.4 605.8C1921.4 636 1904.8 666 1887 685.6C1889.8 689.2 1894.2 697 1895.8 700.4C1915.6 677.8 1933.8 643.8 1945.4 610L1931.4 605.8ZM1912 657.4V788.8H1926.4V643.4L1926 643.2L1912 657.4ZM2114 605V788.8H2128.8V605H2114ZM2096 643.6C2094.6 659.8 2090.8 681.8 2085.6 695.2L2097.4 699.2C2102.6 684.6 2106.4 661.6 2107.4 645.4L2096 643.6ZM2129.2 641.8C2135.2 653.8 2141.8 669.8 2144 679.4L2155.4 673.6C2152.8 664.4 2146.2 649 2140 637.2L2129.2 641.8ZM2156.6 637V651.2H2240.8V705H2255.6V637H2156.6ZM2146 697V711.4H2272.8V697H2146ZM2213.2 700L2199.8 702.8C2210.6 743 2230.6 775.2 2263.8 789.6C2266.2 785.4 2271 779 2274.6 775.8C2243.2 764.2 2222.6 734.6 2213.2 700ZM2195.8 605V671.8C2195.8 706.8 2193.8 751 2139.4 778.2C2142.8 781.2 2147.8 786.6 2149.8 789.8C2205.8 759.2 2210.8 711 2210.8 671.8V605H2195.8ZM2351.8 623V635.2H2468.6V623H2351.8ZM2409.2 734V746.4H2461V734H2409.2ZM2349.2 675.8V688H2473.6V675.8H2349.2ZM2360.6 648.8V660.8H2445.2V704.6H2360.6V716.6H2459.2V648.8H2360.6ZM2401.6 605V771.8L2415.6 779V605H2401.6ZM2362.8 720C2359.4 746 2350.8 767.6 2335.2 781.4C2338.6 783.2 2344.4 787.4 2346.8 789.8C2362.6 774.4 2372.4 750.8 2376.8 721.8L2362.8 720ZM2371.4 738L2360.4 742.6C2374.2 778.8 2397 787.4 2433.8 787.4H2468.8C2469.4 783.6 2471.4 777.4 2473.4 774.2C2466.6 774.2 2439 774.2 2434.4 774.2C2404 774.2 2382.2 767.6 2371.4 738ZM2285.4 708.8L2289.4 723.4C2306.4 718 2328.4 710.8 2349.2 703.6L2347.2 689.8C2324.4 697.2 2301 704.4 2285.4 708.8ZM2288.2 645.4V659.4H2349V645.4H2288.2ZM2313.4 605.2V771.6C2313.4 774.6 2312.2 775.2 2309.8 775.2C2307.4 775.4 2299.8 775.4 2291 775.2C2293 779.4 2294.8 785.6 2295.4 789.2C2308 789.2 2315.8 788.8 2320.4 786.4C2325.4 784 2327.4 780 2327.4 771.6V605.2H2313.4Z" fill="#003261"/>
</g>
<defs>
<filter id="filter0_b_3_4" x="-500" y="-500" width="4049" height="2267" filterUnits="userSpaceOnUse" color-interpolation-filters="sRGB">
<feFlood flood-opacity="0" result="BackgroundImageFix"/>
<feGaussianBlur in="BackgroundImage" stdDeviation="250"/>
<feComposite in2="SourceAlpha" operator="in" result="effect1_backgroundBlur_3_4"/>
<feBlend mode="normal" in="SourceGraphic" in2="effect1_backgroundBlur_3_4" result="shape"/>
</filter>
<clipPath id="clip0_3_4">
<rect width="3049" height="1267" fill="white"/>
</clipPath>
</defs>
</svg>
