<svg width="800" height="600" viewBox="0 0 800 600" fill="none" xmlns="http://www.w3.org/2000/svg">
<rect width="800" height="600" fill="white"/>
<path d="M189.348 318.188C200.155 262.349 251.886 255.773 296.475 230.357C332.801 209.651 356.193 166.021 434.388 157.557C512.583 149.093 589.324 207.247 583.209 290.102C577.095 372.958 495.303 436.391 374.706 409.577C254.109 382.762 178.54 374.026 189.348 318.188Z" fill="url(#paint0_linear)" fill-opacity="0.15"/>
<path d="M601.021 369.683C592.111 342.641 573.356 333.845 564.14 328.487C562.826 334.955 563.333 340.092 565.347 351.995C567.361 363.898 574.511 376.005 586.133 382.063C573.591 396.684 580.496 424.69 584.967 436.803C585.979 439.545 588.942 439.491 590.363 436.866C596.721 425.115 609.995 396.921 601.021 369.683Z" fill="#FFBDD1"/>
<path d="M616.954 407.713C629.779 388.516 639.231 371.989 653.376 373.468C646.289 366.212 610.471 364.718 595.965 397.493C585.254 421.693 584.757 433.506 585.231 438.031C585.359 439.257 586.617 439.72 587.617 439.001C592.361 435.591 605.072 425.499 616.954 407.713Z" fill="#F9759C"/>
<path d="M559.037 420.709L563.801 437.851C564.06 438.782 563.423 439.724 562.462 439.83C561.704 439.913 560.996 439.439 560.784 438.707L555.843 421.657L542.428 418.12L555.374 419.799L552.509 409.25L540.012 402.149L552.09 406.789L549.204 388.96L555.284 405.84L564.795 396.316L555.703 408.301L558.568 418.85L570.355 411.941L559.037 420.709Z" fill="#F9759C"/>
<ellipse rx="5.58863" ry="5.44044" transform="matrix(-0.996589 -0.0825307 -0.0825307 0.996589 571.543 412.646)" fill="#FFBDD1"/>
<ellipse rx="5.58863" ry="5.44044" transform="matrix(-0.996589 -0.0825307 -0.0825307 0.996589 565.513 395.162)" fill="#FFBDD1"/>
<ellipse rx="5.58863" ry="5.44044" transform="matrix(-0.996589 -0.0825307 -0.0825307 0.996589 548.685 387.703)" fill="#FFBDD1"/>
<ellipse rx="5.58863" ry="5.44044" transform="matrix(-0.996589 -0.0825307 -0.0825307 0.996589 537.487 402.546)" fill="#FFBDD1"/>
<ellipse rx="5.58863" ry="5.44044" transform="matrix(-0.996589 -0.0825307 -0.0825307 0.996589 539.902 418.517)" fill="#FFBDD1"/>
<path d="M238.765 390.113C225.229 406.286 222.378 436.963 222.644 450.28C229.573 436.671 244.826 416.962 255.402 409.109C263.545 403.063 281.712 377.092 288.881 361.256C282.475 372.458 255.686 369.897 238.765 390.113Z" fill="#6785EF"/>
<path d="M260.397 406.651C242.098 413.283 227.386 438.272 222.318 449.937C233.807 441.931 255.016 433.172 267.409 432.128C276.95 431.325 303.207 418.734 315.793 408.931C305.72 415.139 283.271 398.361 260.397 406.651Z" fill="#6785EF" fill-opacity="0.6"/>
<path d="M310.482 313.122L298.042 291.073L295.946 286.839C295.946 286.839 178.671 376.376 176.028 382.087C173.384 387.799 175.826 395.981 190.626 386.762C204.667 378.017 277.154 335.313 310.482 313.122Z" fill="#6386FF"/>
<path d="M305.412 283.565C306.192 279.211 236.984 173.575 233.149 173.734C230.595 173.841 157.922 245.674 133.055 272.312C128.061 277.662 124.996 281.189 124.813 281.946C123.721 286.472 168.134 388.561 172.032 389.935C174.961 390.968 178.448 391.525 181.988 390.745C179.537 391.259 176.932 391.012 175.348 388.837C172.293 384.643 304.633 287.918 305.412 283.565Z" fill="#DAE2FF"/>
<path d="M175.787 387.859C176.164 384.488 272.906 310.843 305.472 285.002C238.094 328.134 157.519 341.084 124.863 282.424C123.771 286.95 166.5 385 172.082 390.414C175.049 393.291 182 391.5 186.5 389C184.482 390.121 180.759 390.616 178.275 390.101C176.722 389.779 175.653 389.063 175.787 387.859Z" fill="#BAC6F4"/>
<path d="M274.883 197.174C262.359 204.568 234.813 225.379 220.914 235.503L239.209 262.237C251.623 253.129 276.189 234.123 288.674 225.814C304.281 215.428 302.805 207.47 300.327 202.991C297.85 198.511 290.537 187.932 274.883 197.174Z" fill="#BAC6F4"/>
<circle cx="284.54" cy="209.031" r="10.8737" transform="rotate(-2.37924 284.54 209.031)" fill="#E7ECFF"/>
<path d="M601.5 270.5C559 24.9999 295.5 99.9999 256 202.5" stroke="#F3F3F3" stroke-width="2.93703" stroke-linecap="round" stroke-linejoin="round" stroke-dasharray="9.79 14.69"/>
<path d="M568.688 216.094L572.274 208.397L602.121 223.977L596.542 231.951C592.468 235.064 584.21 238.289 576.258 233.637C568.305 228.985 567.563 220.923 568.688 216.094Z" fill="url(#paint1_linear)"/>
<ellipse rx="16.8046" ry="17.0926" transform="matrix(0.868214 0.496191 -0.537734 0.843114 586.898 216.35)" fill="#F9AEC5"/>
<path d="M552.098 298.15L559.062 224.127L601.218 250.646L598.398 280.556C613.014 294.245 642.925 322.891 645.641 327.967C649.036 334.311 646.027 341.906 639.159 341.882C633.664 341.863 578.829 312.719 552.098 298.15Z" fill="#EE7298"/>
<path d="M646.951 336.515C646.951 336.515 654.295 242.242 650.187 236.412C632.985 211.992 608.771 190.128 596.679 179.732L588.511 272.245C599.441 281.161 644.623 322.2 646.951 336.515Z" fill="#FFBDD1"/>
<path d="M591.625 206.485C604.22 214.892 612.543 225.579 620.074 234.027L619.191 256.372C614.648 252.491 604.558 242.569 598.92 237.403C588.165 227.546 578.739 221.651 573.98 212.554C570.955 206.772 575.881 195.975 591.625 206.485Z" fill="#FE8FB0"/>
<ellipse cx="585.904" cy="213.347" rx="9.11477" ry="5.75669" transform="rotate(38.1061 585.904 213.347)" fill="#FFE4F6"/>
<path d="M474.606 99.1057L468 92.5L443.5 129L451.713 134.187C452.542 134.711 453.539 134.927 454.485 134.668C458.443 133.582 465.003 130.348 470.079 123.271C475.328 115.953 476.076 105.949 475.659 101.253C475.586 100.433 475.188 99.6877 474.606 99.1057Z" fill="url(#paint2_linear)"/>
<ellipse rx="13.328" ry="22.1284" transform="matrix(-0.799784 -0.600287 -0.554355 0.83228 455.495 110.53)" fill="#6785EF"/>
<ellipse rx="13.328" ry="22.1284" transform="matrix(-0.799784 -0.600287 -0.554355 0.83228 455.495 110.53)" fill="#F9AEC5" fill-opacity="0.59"/>
<path d="M266.995 156.139C266.997 155.779 267.058 149.861 269.048 145.499C274.893 132.69 313.499 143.02 311.048 156.499C310.183 161.258 307.393 166.619 306.658 167.977C306.539 168.197 306.398 168.401 306.227 168.596C301.86 173.601 292.522 179.66 281.432 176.105C270.134 172.484 266.938 162.563 266.995 156.173L266.995 156.139Z" fill="url(#paint3_linear)"/>
<ellipse rx="21.6593" ry="22.0305" transform="matrix(0.955306 0.295619 -0.341625 0.939836 289.975 151.377)" fill="#6785EF"/>
<path d="M543.091 158.157L547.755 153.584L512.633 121.542L507.995 127.293C507.4 128.031 507.071 128.962 507.21 129.909C507.903 134.647 511.259 143.516 519.439 150.308C526.766 156.393 535.467 159.59 540.648 159.335C541.584 159.289 542.422 158.812 543.091 158.157Z" fill="url(#paint4_linear)"/>
<ellipse rx="11.86" ry="23.7359" transform="matrix(0.684162 -0.72933 -0.739804 -0.672823 531.076 136.716)" fill="#F9AEC5"/>
<path d="M343.892 101.663L349 94.0001L403 133L397.736 139.48C396.954 140.441 395.812 141.011 394.656 140.801C389.194 139.809 378.471 135.134 368 127.5C356.132 118.848 345.566 110.554 343.378 104.53C343.032 103.579 343.318 102.523 343.892 101.663Z" fill="url(#paint5_linear)"/>
<path d="M372.248 119.217C357.399 108.367 347.058 96.8831 349.151 93.5672C351.245 90.2512 364.98 96.359 379.829 107.209C394.679 118.059 405.02 129.543 402.926 132.859C400.833 136.175 387.098 130.067 372.248 119.217Z" fill="#6785EF"/>
<path d="M372.248 119.217C357.399 108.367 347.058 96.8831 349.151 93.5672C351.245 90.2512 364.98 96.359 379.829 107.209C394.679 118.059 405.02 129.543 402.926 132.859C400.833 136.175 387.098 130.067 372.248 119.217Z" fill="#D84AA8" fill-opacity="0.2"/>
<path d="M517 456.583C517 465.742 486.302 501.256 383.744 498.887C295.937 496.859 277 465.742 277 456.583C277 447.424 318.813 440 389.326 440C459.838 440 517 447.424 517 456.583Z" fill="#F3F3F3"/>
<path d="M397.269 379.664C396.585 381.375 394.133 382.087 392.993 382.23C393.278 384.653 395.815 389.842 403.684 391.211C411.553 392.579 414.661 385.509 415.231 381.802C413.378 379.379 410.869 373.506 415.658 369.4C421.646 364.268 424.212 347.59 416.514 342.885C408.816 338.181 401.25 341.504 399.408 342.885C395.986 345.451 394.276 351.011 392.993 354.86C391.71 358.709 392.993 364.696 392.993 366.834C392.993 368.545 396.699 371.538 398.552 372.821C398.41 374.39 397.954 377.953 397.269 379.664Z" fill="#FCD8E3"/>
<path d="M444.949 455.153C444.813 454.215 443.215 450.761 442.259 449.151C442.728 448.689 443.835 447.711 444.508 447.493C445.18 447.274 446.951 447.195 447.752 447.183L450.726 452.365C451.306 452.053 454.054 452.107 457.141 452.793C460.99 453.648 464.411 455.787 465.605 457.573C466.489 458.896 460.264 460.344 457.73 459.165C454.309 457.573 453.074 459.578 450.339 459.165C447.603 458.752 445.166 456.642 444.949 455.153Z" fill="#FCD8E3"/>
<path d="M349.51 458.272C349.855 457.406 351.924 454.506 353.043 453.21C352.821 452.643 352.268 451.414 351.834 451.029C351.4 450.643 350.128 450.105 349.546 449.884L346.02 454.084C345.678 453.633 343.657 452.966 341.224 452.819C338.189 452.634 335.132 453.794 333.793 455.198C332.802 456.238 336.97 459.255 339.128 458.785C342.043 458.15 342.42 460.398 344.526 460.716C346.631 461.034 348.962 459.645 349.51 458.272Z" fill="#FCD8E3"/>
<path d="M357.925 422.002C353.819 428.16 348.089 443.527 345.523 451.938C348.231 453.648 354.076 456.043 355.786 451.938C357.497 447.832 364.625 436.97 368.188 430.555L379.735 411.31V453.221C381.446 452.365 389.999 450.655 400.263 450.655C409.158 450.655 416.086 454.931 419.507 454.931V439.536L422.501 409.6L430.199 422.857L441.745 450.227C444.14 451.938 447.59 449.514 449.015 448.089L440.462 420.291C437.896 410.027 431.824 385.822 429.771 383.085C427.718 380.348 419.365 382.087 415.231 381.802C413.948 384.368 409.757 389.5 403.256 389.5C396.756 389.5 394.561 384.368 394.275 381.802C391.709 381.232 385.637 380.776 381.873 383.513C378.11 386.25 363.912 410.883 357.925 422.002Z" fill="#FCA9C3"/>
<path d="M378.025 442.529V447.661C378.025 448.089 377.854 455.872 377.597 463.057C377.34 470.269 381.018 473.748 387.861 477.17H395.559H404.539C414.803 477.17 417.797 467.761 419.507 466.478C420.876 465.452 418.224 452.08 419.507 443.812C414.233 442.672 408.388 440.391 398.98 440.391C390.427 440.391 378.025 441.246 378.025 442.529Z" fill="url(#paint6_linear)"/>
<path d="M360 509.698V502H367.27V509.698C367.27 509.698 365.987 512.691 363.421 512.691C360.856 512.691 360 510.696 360 509.698Z" fill="#FCD8E3"/>
<path d="M425 512.408V503H431.843C431.985 505.851 432.185 510.356 431.843 512.408C431.415 514.974 425 514.119 425 512.408Z" fill="#FCD8E3"/>
<path d="M349.121 525.288C349.463 522.551 356.819 514.026 360.24 510.32C360.81 511.032 360.24 512.03 363.234 512.03C366.227 512.03 367.51 509.037 367.51 510.32C367.51 511.175 369.648 515.879 367.938 517.59C366.227 519.3 361.095 532.558 355.108 532.558C349.121 532.558 348.693 528.709 349.121 525.288Z" fill="#B2C3FF"/>
<path d="M429.25 513.741C427.54 513.741 427.112 512.886 425.401 512.03L424.546 517.59C424.546 518.873 423.691 522.722 423.691 526.571C423.691 530.419 427.967 535.979 433.954 535.551C439.942 535.124 438.231 526.998 437.376 525.288C436.691 523.919 433.669 515.879 432.244 512.03C431.816 512.6 430.619 513.741 429.25 513.741Z" fill="#B2C3FF"/>
<path d="M358.78 457.925C357.412 463.057 358.21 488.289 358.78 500.263C362.544 505.395 367.761 503.257 369.899 501.546L375.886 466.478C378.024 469.757 383.67 475.972 389.144 474.604C395.986 472.893 392.137 461.774 391.709 457.925C391.282 454.076 381.873 443.812 379.735 439.108C377.597 434.404 372.465 436.542 368.188 436.97C363.912 437.398 360.491 451.51 358.78 457.925Z" fill="url(#paint7_linear)"/>
<path d="M409.243 474.604C406.016 474.943 403.969 474.176 403.256 473.321C402.686 472.038 401.546 468.873 401.546 466.478C401.546 463.485 403.256 456.642 407.533 451.083C411.809 445.523 422.073 436.97 426.35 436.97C430.626 436.97 433.192 439.108 434.475 442.957C435.758 446.806 434.475 501.546 431.909 503.257C429.856 504.625 425.922 503.827 424.211 503.257C422.928 499.123 420.106 488.973 419.079 481.446C418.053 473.919 419.507 466.336 420.362 463.485C417.939 466.763 417.369 473.748 409.243 474.604Z" fill="url(#paint8_linear)"/>
<path d="M393.42 333.477C392.565 335.188 391.71 339.892 397.697 344.596C399.55 344.026 403.941 343.57 406.678 346.307C409.415 349.044 414.09 350.013 416.086 350.156C420.79 358.709 416.941 364.838 416.941 368.545C420.79 365.124 425.067 348.017 425.067 346.307C425.067 344.938 422.786 343.456 421.646 342.885C421.36 342.458 420.79 341.089 420.79 339.037C420.79 336.471 415.231 333.477 411.81 332.194C408.388 330.911 401.973 333.477 400.263 333.477C398.894 333.477 396.842 331.196 395.986 330.056C395.416 330.626 394.105 332.109 393.42 333.477Z" fill="#B2C3FF"/>
<path d="M395.559 368.973C394.532 368.973 394.418 369.543 394.703 369.828L398.552 372.821L398.125 376.243C399.265 375.387 401.717 373.591 402.401 373.249C403.256 372.821 404.967 372.394 404.539 371.538C404.112 370.683 396.842 368.973 395.559 368.973Z" fill="#EDD2E4"/>
<path d="M488.087 471.242C487.061 470.9 470.838 451.428 462.855 441.734L470.981 433.181L485.521 445.583L513.747 437.885L530.853 454.991L528.715 462.262C515.6 465.398 489.114 471.584 488.087 471.242Z" fill="url(#paint9_linear)"/>
<path d="M468.843 433.181C468.871 433.167 468.903 433.157 468.939 433.152C478.954 430.15 499.558 424.373 502.627 425.055C505.706 425.74 514.174 434.179 518.023 438.313L484.666 447.721C480.06 442.696 470.615 432.915 468.939 433.152C468.907 433.162 468.874 433.171 468.843 433.181Z" fill="#FFBDD1"/>
<defs>
<linearGradient id="paint0_linear" x1="387.062" y1="416.183" x2="384.791" y2="157.302" gradientUnits="userSpaceOnUse">
<stop stop-color="#FFBDD1" stop-opacity="0.4"/>
<stop offset="1" stop-color="#6386FF" stop-opacity="0.59"/>
</linearGradient>
<linearGradient id="paint1_linear" x1="570.202" y1="217.003" x2="590.787" y2="240.604" gradientUnits="userSpaceOnUse">
<stop stop-color="#F9AEC5"/>
<stop offset="0.508287" stop-color="#FED1DF"/>
<stop offset="1" stop-color="#F9AEC5"/>
</linearGradient>
<linearGradient id="paint2_linear" x1="469.404" y1="93.129" x2="441.216" y2="129.489" gradientUnits="userSpaceOnUse">
<stop stop-color="#BD9DD6"/>
<stop offset="0.508287" stop-color="#E6CCFB"/>
<stop offset="1" stop-color="#BD9DD6"/>
</linearGradient>
<linearGradient id="paint3_linear" x1="269.154" y1="156.876" x2="301.664" y2="180.8" gradientUnits="userSpaceOnUse">
<stop stop-color="#6785EF"/>
<stop offset="0.508287" stop-color="#B2C3FF"/>
<stop offset="1" stop-color="#6785EF"/>
</linearGradient>
<linearGradient id="paint4_linear" x1="548.185" y1="152.486" x2="511.858" y2="120.433" gradientUnits="userSpaceOnUse">
<stop stop-color="#F9AEC5"/>
<stop offset="0.508287" stop-color="#FED5E2"/>
<stop offset="1" stop-color="#F9AEC5"/>
</linearGradient>
<linearGradient id="paint5_linear" x1="350.818" y1="88.1397" x2="407.147" y2="123.234" gradientUnits="userSpaceOnUse">
<stop stop-color="#7E79E1"/>
<stop offset="0.508287" stop-color="#DAD8FF"/>
<stop offset="1" stop-color="#7E79E1"/>
</linearGradient>
<linearGradient id="paint6_linear" x1="399.403" y1="445.523" x2="396.842" y2="470.755" gradientUnits="userSpaceOnUse">
<stop stop-color="#384F9F"/>
<stop offset="1" stop-color="#3951B2"/>
</linearGradient>
<linearGradient id="paint7_linear" x1="393.508" y1="436.115" x2="393.508" y2="504.012" gradientUnits="userSpaceOnUse">
<stop stop-color="#3C56C6"/>
<stop offset="1" stop-color="#334891"/>
</linearGradient>
<linearGradient id="paint8_linear" x1="393.508" y1="436.115" x2="393.508" y2="504.012" gradientUnits="userSpaceOnUse">
<stop stop-color="#3C56C6"/>
<stop offset="1" stop-color="#334891"/>
</linearGradient>
<linearGradient id="paint9_linear" x1="494.209" y1="433.181" x2="494.209" y2="471.256" gradientUnits="userSpaceOnUse">
<stop stop-color="#3C56C6"/>
<stop offset="1" stop-color="#334891"/>
</linearGradient>
</defs>
</svg>
